<?xml version="1.0" encoding="UTF-8"?>
<!DOCTYPE svg PUBLIC "-//W3C//DTD SVG 1.1//EN" "http://www.w3.org/Graphics/SVG/1.1/DTD/svg11.dtd">
<!-- Creator: CorelDRAW X7 -->
<svg xmlns="http://www.w3.org/2000/svg" xml:space="preserve" width="297px" height="297px" version="1.1" style="shape-rendering:geometricPrecision; text-rendering:geometricPrecision; image-rendering:optimizeQuality; fill-rule:evenodd; clip-rule:evenodd"
viewBox="0 0 80 80"
 xmlns:xlink="http://www.w3.org/1999/xlink">
 <defs>
  <style type="text/css">
   <![CDATA[
    .fil0 {fill:#8B8B8C}
   ]]>
  </style>
 </defs>
 <g id="图层_x0020_1">
  <metadata id="CorelCorpID_0Corel-Layer"/>
  <path class="fil0" d="M40 0c22,0 40,18 40,40 0,22 -18,40 -40,40 -22,0 -40,-18 -40,-40 0,-22 18,-40 40,-40zm-18 46l0 13c0,1 2,2 3,1 2,-2 -2,-16 2,-16l25 0c2,0 3,2 3,4 0,2 -1,11 0,12 1,1 3,0 3,-2l0 -11c0,-4 -2,-7 -6,-7l-24 0c-3,0 -6,3 -6,6zm7 -10c1,0 1,0 3,-2 0,0 1,-1 2,-1 5,-2 10,-2 14,2 1,0 2,1 3,1 0,0 5,-1 -3,-6 -9,-5 -21,2 -21,5 0,0 1,1 2,1zm-4 -7c2,0 6,-6 15,-6 1,0 3,0 5,1 3,0 4,1 7,3 1,1 1,2 3,2 1,0 2,-1 2,-2 0,-2 -9,-7 -16,-7 -7,0 -12,1 -16,5 -3,3 -1,4 0,4z"/>
 </g>
</svg>
