<?xml version="1.0" encoding="UTF-8"?>
<!DOCTYPE svg PUBLIC "-//W3C//DTD SVG 1.1//EN" "http://www.w3.org/Graphics/SVG/1.1/DTD/svg11.dtd">
<!-- Creator: CorelDRAW X7 -->
<svg xmlns="http://www.w3.org/2000/svg" xml:space="preserve" width="297px" height="297px" version="1.1" style="shape-rendering:geometricPrecision; text-rendering:geometricPrecision; image-rendering:optimizeQuality; fill-rule:evenodd; clip-rule:evenodd"
viewBox="0 0 43 43"
 xmlns:xlink="http://www.w3.org/1999/xlink">
 <defs>
  <style type="text/css">
   <![CDATA[
    .fil0 {fill:#8B8B8C}
   ]]>
  </style>
 </defs>
 <g id="图层_x0020_1">
  <metadata id="CorelCorpID_0Corel-Layer"/>
  <path class="fil0" d="M21 0c12,0 22,10 22,21 0,12 -10,22 -22,22 -11,0 -21,-10 -21,-22 0,-11 10,-21 21,-21zm-9 16c0,1 -1,1 -1,1 -1,0 -1,0 -1,-1l0 -5c0,-1 0,-1 1,-1l5 0c1,0 1,0 1,1 0,0 0,1 -1,1l-4 0 0 4zm-1 6c-1,0 -1,0 -1,-1 0,0 0,-1 1,-1l21 0c1,0 1,1 1,1 0,1 0,1 -1,1l-21 0zm16 -10c-1,0 -2,-1 -2,-1 0,-1 1,-1 2,-1l5 0c1,0 1,0 1,1l0 5c0,1 0,1 -1,1 0,0 -1,0 -1,-1l0 -4 -4 0zm4 15c0,-1 1,-2 1,-2 1,0 1,1 1,2l0 5c0,1 0,1 -1,1l-5 0c-1,0 -2,0 -2,-1 0,0 1,-1 2,-1l4 0 0 -4zm-15 4c1,0 1,1 1,1 0,1 0,1 -1,1l-5 0c-1,0 -1,0 -1,-1l0 -5c0,-1 0,-2 1,-2 0,0 1,1 1,2l0 4 4 0z"/>
 </g>
</svg>
