<?xml version="1.0" encoding="UTF-8"?>
<!DOCTYPE svg PUBLIC "-//W3C//DTD SVG 1.1//EN" "http://www.w3.org/Graphics/SVG/1.1/DTD/svg11.dtd">
<!-- Creator: CorelDRAW X7 -->
<svg xmlns="http://www.w3.org/2000/svg" xml:space="preserve" width="297px" height="297px" version="1.1" style="shape-rendering:geometricPrecision; text-rendering:geometricPrecision; image-rendering:optimizeQuality; fill-rule:evenodd; clip-rule:evenodd"
viewBox="0 0 282 282"
 xmlns:xlink="http://www.w3.org/1999/xlink">
 <defs>
  <style type="text/css">
   <![CDATA[
    .fil0 {fill:#8B8B8C}
   ]]>
  </style>
 </defs>
 <g id="图层_x0020_1">
  <metadata id="CorelCorpID_0Corel-Layer"/>
  <path class="fil0" d="M141 0c78,0 141,63 141,141 0,78 -63,141 -141,141 -78,0 -141,-63 -141,-141 0,-78 63,-141 141,-141zm-58 101l17 -18c4,3 7,8 15,8 13,0 14,-12 14,-21l25 0c0,9 0,21 14,21 8,0 10,-5 15,-8l17 17c-4,6 -9,6 -9,15 0,13 12,14 21,14l0 24c-27,0 -24,21 -12,29l-18 18c-5,-3 -7,-9 -14,-9 -13,0 -14,12 -14,21l-25 0c0,-9 -2,-21 -14,-21 -8,0 -10,6 -14,9l-18 -18c12,-9 14,-29 -12,-29l0 -24c8,0 20,-1 20,-14 0,-9 -5,-9 -8,-14zm36 40c0,-29 45,-29 45,0 0,30 -45,30 -45,0zm-12 -2c0,11 3,19 11,27 23,22 57,2 57,-21l0 -6c0,-17 -14,-32 -36,-32 -16,0 -32,16 -32,32zm9 -59c-7,-2 -8,-11 -17,-9 -6,1 -27,22 -28,27 -2,10 7,11 9,18 -4,2 -9,-1 -15,2 -4,2 -6,5 -6,11 0,19 -3,31 7,35 5,3 9,0 14,3 -1,5 -7,6 -9,12 -2,6 2,10 6,13 11,11 20,26 32,16 3,-3 2,-5 8,-5 0,24 8,21 35,21 14,0 14,-12 14,-21 8,1 7,9 17,9 5,0 18,-15 22,-19 16,-15 0,-18 -2,-26 4,-3 8,0 13,-3 4,-1 7,-4 7,-9l0 -27c0,-13 -17,-11 -20,-12 1,-7 10,-8 8,-18 -1,-5 -21,-26 -27,-27 -9,-2 -11,7 -17,9 -2,-5 0,-10 -3,-15 -5,-9 -19,-7 -33,-7 -17,0 -13,18 -15,22z"/>
 </g>
</svg>
