<?xml version="1.0" encoding="UTF-8"?>
<!DOCTYPE svg PUBLIC "-//W3C//DTD SVG 1.1//EN" "http://www.w3.org/Graphics/SVG/1.1/DTD/svg11.dtd">
<!-- Creator: CorelDRAW X7 -->
<svg xmlns="http://www.w3.org/2000/svg" xml:space="preserve" width="297px" height="297px" version="1.1" style="shape-rendering:geometricPrecision; text-rendering:geometricPrecision; image-rendering:optimizeQuality; fill-rule:evenodd; clip-rule:evenodd"
viewBox="0 0 70 70"
 xmlns:xlink="http://www.w3.org/1999/xlink">
 <defs>
  <style type="text/css">
   <![CDATA[
    .fil0 {fill:#68C0EC}
   ]]>
  </style>
 </defs>
 <g id="图层_x0020_1">
  <metadata id="CorelCorpID_0Corel-Layer"/>
  <path class="fil0" d="M35 0c19,0 35,16 35,35 0,19 -16,35 -35,35 -19,0 -35,-16 -35,-35 0,-19 16,-35 35,-35zm-11 16l22 0c1,0 2,0 2,1l0 35c0,1 -1,2 -2,2l-22 0c-1,0 -2,-1 -2,-2l0 -35c0,-1 1,-1 2,-1zm1 30l20 0 0 -28 -20 0 0 28zm10 2c1,0 2,1 2,2 0,1 -1,2 -2,2 -1,0 -2,-1 -2,-2 0,-1 1,-2 2,-2z"/>
 </g>
</svg>
